<svg width="52" height="52" viewBox="0 0 52 52" fill="none" xmlns="http://www.w3.org/2000/svg">
<path d="M43.1124 34.6666H17.1124C15.0974 34.6666 14.0899 34.6666 13.2622 34.8876C12.1601 35.1832 11.1552 35.7637 10.3485 36.5707C9.54178 37.3778 8.96177 38.383 8.66675 39.4853" stroke="#9747FF" stroke-width="3"/>
<path d="M17.3334 15.1666H34.6667M17.3334 22.75H28.1667M21.6667 47.6666C15.5394 47.6666 12.4736 47.6666 10.5712 45.7621C8.66675 43.8598 8.66675 40.794 8.66675 34.6666V17.3333C8.66675 11.206 8.66675 8.14015 10.5712 6.23781C12.4736 4.33331 15.5394 4.33331 21.6667 4.33331H30.3334C36.4607 4.33331 39.5266 4.33331 41.4289 6.23781C43.3334 8.14015 43.3334 11.206 43.3334 17.3333M30.3334 47.6666C36.4607 47.6666 39.5266 47.6666 41.4289 45.7621C43.3334 43.8598 43.3334 40.794 43.3334 34.6666V26" stroke="#9747FF" stroke-width="3" stroke-linecap="round"/>
</svg>
