<svg width="65" height="64" viewBox="0 0 65 64" fill="none" xmlns="http://www.w3.org/2000/svg">
<path d="M32.4999 58.6667C17.7719 58.6667 5.83325 46.728 5.83325 32C5.83325 17.272 17.7719 5.33334 32.4999 5.33334C47.2279 5.33334 59.1666 17.272 59.1666 32C59.1666 46.728 47.2279 58.6667 32.4999 58.6667ZM32.4999 53.3333C38.1579 53.3333 43.5841 51.0857 47.5849 47.085C51.5856 43.0842 53.8333 37.658 53.8333 32C53.8333 26.3421 51.5856 20.9158 47.5849 16.9151C43.5841 12.9143 38.1579 10.6667 32.4999 10.6667C26.842 10.6667 21.4158 12.9143 17.415 16.9151C13.4142 20.9158 11.1666 26.3421 11.1666 32C11.1666 37.658 13.4142 43.0842 17.415 47.085C21.4158 51.0857 26.842 53.3333 32.4999 53.3333ZM35.1666 32H45.8333V37.3333H29.8333V18.6667H35.1666V32Z" fill="#E4A951"/>
</svg>
