<svg width="42" height="52" viewBox="0 0 42 52" fill="none" xmlns="http://www.w3.org/2000/svg">
<path d="M40.2505 9.75H6.76565C6.31919 9.74412 5.87864 9.65431 5.47056 9.48599C5.06248 9.31767 4.69533 9.07432 4.39125 8.77062C4.08718 8.46692 3.85248 8.10916 3.7013 7.71892C3.55012 7.32867 3.4856 6.91403 3.51164 6.5C3.50946 5.67605 3.84429 4.88209 4.44839 4.27874C5.05249 3.67538 5.88076 3.30767 6.76565 3.25H40.2505C40.7145 3.25 41.1595 3.0788 41.4876 2.77405C41.8157 2.4693 42 2.05598 42 1.625C42 1.19402 41.8157 0.780698 41.4876 0.475951C41.1595 0.171205 40.7145 0 40.2505 0H6.76565C4.95247 0.0589819 3.23483 0.769753 1.97499 1.98241C0.715143 3.19506 0.0115822 4.8148 0.0126937 6.5C-0.00423124 6.76518 -0.00423124 7.03107 0.0126937 7.29625C-0.00416209 7.42578 -0.00416209 7.55672 0.0126937 7.68625V45.5C0.0115822 47.1852 0.715143 48.8049 1.97499 50.0176C3.23483 51.2303 4.95247 51.941 6.76565 52H40.2505C40.7145 52 41.1595 51.8288 41.4876 51.524C41.8157 51.2193 42 50.806 42 50.375V11.4887C42.001 11.0467 41.8207 10.6208 41.4957 10.2978C41.1707 9.9748 40.7255 9.77892 40.2505 9.75ZM38.5011 48.75H6.76565C5.88076 48.6923 5.05249 48.3246 4.44839 47.7213C3.84429 47.1179 3.50946 46.3239 3.51164 45.5V12.2688C4.50637 12.7785 5.63009 13.031 6.76565 13H38.5011V48.75Z" fill="#01D5E1"/>
</svg>
