<svg width="46" height="46" viewBox="0 0 46 46" fill="none" xmlns="http://www.w3.org/2000/svg">
<path d="M35.7722 25.796L36.6014 25.3814V25.1912C36.7644 25.0254 36.9091 24.8413 37.0323 24.6416C37.337 24.1483 37.4983 23.5798 37.4983 23C37.4983 22.4202 37.337 21.8517 37.0323 21.3584C36.7277 20.865 36.2919 20.4661 35.7735 20.2063L35.7722 20.2056L16.2722 10.4556L16.2719 10.4554C15.7956 10.2174 15.2663 10.1051 14.7344 10.129C14.2025 10.153 13.6855 10.3125 13.2325 10.5923C12.7795 10.8722 12.4055 11.2632 12.1461 11.7282C11.8866 12.1932 11.7503 12.7167 11.75 13.2492V13.25V32.7493C11.75 32.7495 11.75 32.7498 11.75 32.75C11.7499 33.2825 11.8858 33.8062 12.1449 34.2714L13.4554 33.5415L12.1449 34.2714C12.4042 34.7368 12.7781 35.1282 13.2312 35.4085C13.6842 35.6887 14.2014 35.8484 14.7336 35.8726C15.2658 35.8967 15.7953 35.7843 16.2719 35.5462L16.2722 35.546L35.7722 25.796ZM11.1941 5.33127C14.6887 2.99629 18.7972 1.75 23 1.75C28.6359 1.75 34.0409 3.98883 38.026 7.97398C42.0112 11.9591 44.25 17.3642 44.25 23C44.25 27.2029 43.0037 31.3113 40.6687 34.8059C38.3338 38.3004 35.015 41.0241 31.132 42.6324C27.2491 44.2408 22.9764 44.6616 18.8543 43.8417C14.7322 43.0218 10.9459 40.9979 7.97399 38.026C5.00212 35.0542 2.97826 31.2678 2.15832 27.1457C1.33839 23.0236 1.75921 18.7509 3.36757 14.868C4.97593 10.985 7.6996 7.66625 11.1941 5.33127Z" stroke="#85B6FF" stroke-width="3"/>
</svg>
