<svg width="31" height="31" viewBox="0 0 31 31" fill="none" xmlns="http://www.w3.org/2000/svg">
<path d="M11.625 20.6667H8.07607C7.22915 20.6667 6.80569 20.6667 6.46749 20.7929C5.92416 20.9956 5.49558 21.4242 5.29285 21.9675C5.16666 22.3057 5.16666 22.7292 5.16666 23.5761V23.5761C5.16666 24.5873 5.16666 25.0929 5.3261 25.4679C5.58259 26.0712 6.11843 26.5105 6.76029 26.6437C7.15929 26.7265 7.65508 26.6273 8.64666 26.429L9.02912 26.3525C9.96791 26.1648 10.4373 26.0709 10.7861 25.8222C11.0751 25.6161 11.3041 25.3368 11.4495 25.013C11.625 24.6222 11.625 24.1435 11.625 23.1861V11.0292C11.625 9.45948 11.625 8.67461 12.0783 8.12165C12.5316 7.56869 13.3013 7.41477 14.8405 7.10691L19.7572 6.12358C21.9708 5.68086 23.0776 5.4595 23.8096 6.05961C24.5417 6.65973 24.5417 7.78845 24.5417 10.0459V11.625M24.5417 18.0834V20.6027C24.5417 21.5601 24.5417 22.0388 24.3662 22.4296C24.2208 22.7535 23.9918 23.0328 23.7028 23.2388C23.354 23.4876 22.8846 23.5814 21.9458 23.7692L21.5633 23.8457C20.5717 24.044 20.076 24.1432 19.677 24.0604C19.0351 23.9272 18.4993 23.4879 18.2428 22.8846C18.0833 22.5096 18.0833 22.004 18.0833 20.9928V20.9928C18.0833 20.1458 18.0833 19.7224 18.2095 19.3842C18.4122 18.8409 18.8408 18.4123 19.3842 18.2095C19.7224 18.0834 20.1458 18.0834 20.9927 18.0834H24.5417ZM24.5417 18.0834V11.625M24.5417 11.625L11.625 14.2084" stroke="#676061" stroke-width="2"/>
</svg>
